# Blender 4.2.4 LTS
# www.blender.org
mtllib tree.mtl
o Tree_Spruce_tiny_01
v 0.019825 0.000795 -0.948562
v -0.001794 1.512221 -0.575481
v 0.624925 0.007966 -0.644755
v 0.357662 1.512221 -0.339257
v 0.776340 0.001589 -0.057116
v 0.489496 1.512221 -0.040278
v 0.703986 0.000000 0.655322
v 0.312397 1.512221 0.278568
v 0.002173 0.003688 0.758665
v 0.001620 1.512221 0.366234
v -0.524542 0.009275 0.612497
v -0.351058 1.512221 0.210592
v -0.950117 0.000000 0.039545
v -0.464042 1.512221 -0.070039
v -0.635016 0.010241 -0.592825
v -0.339225 1.512221 -0.394796
v -0.002052 0.475284 -0.684279
v 0.469640 0.420584 -0.498017
v 0.637191 0.357647 -0.072236
v 0.469045 0.392159 0.397304
v 0.036262 0.408640 0.610511
v -0.439180 0.483867 0.377436
v -0.575794 0.646807 -0.051039
v -0.472172 0.567210 -0.499547
v -0.119517 4.230973 -0.476413
v 0.169413 4.230973 -0.286537
v 0.275380 4.230973 -0.046218
v 0.133028 4.230973 0.210069
v -0.116774 4.230973 0.280535
v -0.400255 4.230973 0.155430
v -0.491072 4.230973 -0.070140
v -0.390744 4.230973 -0.331179
v -0.015846 5.798997 -0.424958
v 0.236453 5.798997 -0.259154
v 0.328986 5.798997 -0.049304
v 0.204682 5.798997 0.174491
v -0.013450 5.798997 0.236023
v -0.260991 5.798997 0.126779
v -0.340293 5.798997 -0.070193
v -0.252686 5.798997 -0.298137
v -0.030213 7.189987 -0.340073
v 0.161657 7.189987 -0.213982
v 0.232027 7.189987 -0.054394
v 0.137495 7.189987 0.115799
v -0.028391 7.189987 0.162593
v -0.216642 7.189987 0.079515
v -0.276951 7.189987 -0.070280
v -0.210326 7.189987 -0.243628
v 0.014432 8.315424 -0.273390
v 0.158830 8.315424 -0.178496
v 0.211789 8.315424 -0.058392
v 0.140647 8.315424 0.069692
v 0.015804 8.315424 0.104908
v -0.125871 8.315424 0.042385
v -0.171258 8.315424 -0.070348
v -0.121118 8.315424 -0.200807
v 0.044957 10.186936 -0.070556
v 0.113463 2.752122 -2.743321
v 0.178481 5.893487 -0.829294
v 2.155339 2.273255 -1.891235
v 0.723045 5.806057 -0.548267
v 2.886451 2.775712 0.024349
v 0.946078 5.793570 -0.002817
v 2.070657 2.470645 1.954951
v 0.745486 5.853884 0.566859
v 0.118628 2.995346 2.757803
v 0.173221 5.797928 0.750872
v -1.836593 2.695925 1.960747
v -0.359469 5.818696 0.526470
v -2.543915 2.948021 0.038575
v -0.563648 5.792362 0.001257
v -1.853396 2.494826 -1.955303
v -0.396516 5.890165 -0.567938
v 0.350214 5.145920 -2.234440
v 0.179205 7.809763 -0.702863
v 1.794711 5.555183 -1.540782
v 0.576955 7.608193 -0.380343
v 2.452028 5.103882 -0.007411
v 0.842856 7.798573 -0.003643
v 1.761512 5.551773 1.615407
v 0.609877 7.697971 0.421746
v 0.331569 5.031336 2.323854
v 0.182164 7.695094 0.618675
v -1.351221 5.282729 1.557739
v -0.303178 7.724405 0.470318
v -1.880203 4.893526 -0.001954
v -0.490406 7.678649 -0.001954
v -1.188643 5.417932 -1.498762
v -0.322791 7.737983 -0.484938
v 0.201368 7.384513 -1.531509
v 1.182021 7.543153 -1.064045
v 1.592017 7.275147 0.002661
v 1.147844 7.575311 1.039721
v 0.196492 11.005312 -0.000379
v 0.157315 7.375331 1.427163
v -0.826684 7.748991 0.978076
v -1.359163 7.405196 -0.107783
v -0.801822 7.645178 -0.990183
v 0.906522 8.430223 -0.000032
v -0.588632 8.623486 0.006961
v 0.730562 8.658649 -0.531846
v 0.773446 8.664837 0.580418
v -0.352177 8.499104 0.516631
v 0.165057 8.647700 -0.768834
v 0.157962 8.613764 0.823306
v -0.348265 8.667495 -0.510094
v 0.101323 2.335914 -2.437130
v 0.166855 5.477261 -0.523091
v 1.933003 1.857772 -1.679735
v 0.500897 5.390592 -0.336565
v 2.576695 2.365217 0.026106
v 0.636322 5.383073 -0.001235
v 1.851083 2.051181 1.744003
v 0.525824 5.434421 0.355986
v 0.114937 2.567582 2.458393
v 0.169367 5.370183 0.451448
v -1.628432 2.254698 1.757671
v -0.151483 5.377468 0.323218
v -2.245910 2.518084 0.031783
v -0.265631 5.362426 -0.005309
v -1.641330 2.059597 -1.750632
v -0.185115 5.454993 -0.362539
v 0.354721 4.709491 -1.940528
v 0.186952 7.373868 -0.408676
v 1.584265 5.112453 -1.341522
v 0.366333 7.165463 -0.181271
v 2.168286 4.652471 0.003085
v 0.559038 7.347182 0.005346
v 1.560143 5.097905 1.417667
v 0.408672 7.244104 0.223842
v 0.340910 4.587387 2.034989
v 0.191605 7.251166 0.329810
v -1.115501 4.869206 1.359483
v -0.067459 7.310881 0.272062
v -1.552079 4.517336 0.003658
v -0.162282 7.302461 0.003658
v -0.940582 5.027997 -1.294844
v -0.075571 7.347953 -0.280104
v 0.205655 7.018458 -1.224430
v 0.946356 7.122182 -0.873970
v 1.259385 6.923421 -0.002630
v 0.903575 7.194267 0.824252
v 0.193579 10.381524 0.003312
v 0.137875 7.056796 1.111337
v -0.640827 7.283522 0.756430
v -1.051431 7.001009 -0.103992
v -0.582489 7.206236 -0.786726
v 0.550915 8.116710 0.005919
v -0.255473 8.257731 -0.000961
v 0.460028 8.324195 -0.314130
v 0.500275 8.341996 0.358408
v -0.114029 8.132181 0.285156
v 0.173406 8.297196 -0.428632
v 0.180850 8.278262 0.477241
v -0.100681 8.325291 -0.271323
vn 0.4560 0.1345 -0.8797
vn 0.9196 0.1376 -0.3679
vn 0.9096 0.1367 0.3923
vn 0.3724 0.1806 0.9103
vn -0.4041 0.1830 0.8962
vn -0.9250 0.1326 0.3561
vn -0.9453 0.1417 -0.2938
vn -0.3972 0.1247 -0.9092
vn 0.0261 -0.9997 -0.0032
vn -0.3801 0.3489 -0.8566
vn -0.8534 0.3816 -0.3551
vn -0.7482 0.4486 0.4889
vn -0.2925 0.4151 0.8615
vn 0.2426 0.4883 0.8383
vn 0.8580 0.4878 0.1610
vn 0.8881 0.3835 -0.2533
vn 0.3863 0.4502 -0.8051
vn -0.0008 -0.9997 0.0251
vn -0.0022 -0.9999 -0.0103
vn -0.0057 -1.0000 -0.0028
vn -0.0052 -1.0000 -0.0024
vn -0.0107 -0.9999 0.0002
vn 0.9127 0.0710 -0.4024
vn -0.4037 0.0113 0.9148
vn -0.4720 0.0117 -0.8815
vn 0.5484 0.0542 -0.8345
vn 0.8721 0.0697 0.4844
vn -0.9276 -0.0092 0.3735
vn 0.2713 0.0421 0.9616
vn -0.9334 -0.0093 -0.3587
vn -0.4032 0.0525 0.9136
vn 0.8738 -0.0289 0.4854
vn 0.5492 -0.0089 -0.8357
vn -0.4712 0.0600 -0.8800
vn -0.9240 0.0889 0.3720
vn 0.2715 0.0094 0.9624
vn 0.9145 -0.0321 -0.4033
vn -0.9297 0.0894 -0.3573
vn -0.9326 0.0424 -0.3584
vn -0.4034 0.0439 0.9140
vn 0.8725 0.0626 0.4846
vn 0.5483 0.0566 -0.8344
vn -0.4715 0.0489 -0.8805
vn -0.9268 0.0422 0.3731
vn 0.2711 0.0536 0.9611
vn 0.9132 0.0622 -0.4027
vn -0.9241 0.0868 0.3721
vn 0.2713 0.0386 0.9617
vn 0.9149 0.0150 -0.4034
vn -0.9299 0.0873 -0.3574
vn -0.4030 0.0626 0.9131
vn 0.8741 0.0174 0.4855
vn 0.5490 0.0277 -0.8354
vn -0.4709 0.0708 -0.8794
vn 0.5474 0.0813 -0.8329
vn -0.4696 0.1027 -0.8769
vn -0.9224 0.1066 0.3713
vn 0.2705 0.0857 0.9589
vn 0.9122 0.0787 -0.4022
vn -0.9281 0.1072 -0.3567
vn -0.4020 0.0917 0.9110
vn 0.8713 0.0808 0.4840
vn 0.4387 0.4651 -0.7689
vn 0.7804 0.4818 -0.3985
vn 0.7921 0.4858 0.3696
vn 0.3941 0.5031 0.7691
vn -0.3713 0.5362 0.7580
vn -0.7757 0.5328 0.3381
vn -0.7925 0.5092 -0.3358
vn -0.3756 0.4860 -0.7891
vn 0.3590 0.5401 -0.7612
vn 0.7836 0.5413 -0.3048
vn 0.8050 0.5264 0.2737
vn 0.2368 0.5477 0.8025
vn -0.2814 0.4981 0.8202
vn -0.8686 0.4488 0.2101
vn -0.8667 0.4323 -0.2487
vn -0.3369 0.4651 -0.8187
vn 0.3121 0.5028 -0.8061
vn 0.8647 0.4727 -0.1702
vn 0.8783 0.4487 0.1651
vn 0.2691 0.4355 0.8590
vn -0.3180 0.5056 0.8020
vn -0.7810 0.5471 0.3012
vn -0.7837 0.5188 -0.3415
vn -0.3314 0.4967 -0.8022
vn -0.4225 0.2860 -0.8601
vn -0.5401 0.2818 0.7930
vn 0.9444 0.2604 -0.2006
vn -0.8432 0.2794 0.4594
vn 0.9579 0.2641 0.1128
vn -0.8775 0.2881 -0.3834
vn 0.3280 0.3029 0.8948
vn 0.3659 0.2840 -0.8863
vn -0.4528 -0.4642 0.7612
vn -0.7733 -0.4811 0.4130
vn -0.7878 -0.4857 -0.3789
vn -0.4043 -0.5025 -0.7642
vn 0.3817 -0.5360 -0.7530
vn 0.7748 -0.5328 -0.3403
vn 0.7906 -0.5091 0.3402
vn 0.3863 -0.4860 0.7840
vn -0.3691 -0.5401 0.7564
vn -0.7855 -0.5412 0.3001
vn -0.8081 -0.5261 -0.2650
vn -0.2161 -0.5462 -0.8093
vn 0.2550 -0.4982 -0.8287
vn 0.8748 -0.4469 -0.1871
vn 0.8716 -0.4313 0.2330
vn 0.3220 -0.4661 0.8241
vn -0.3017 -0.5050 0.8087
vn -0.8732 -0.4679 0.1365
vn -0.8877 -0.4448 -0.1188
vn -0.2424 -0.4386 -0.8654
vn 0.3583 -0.5146 -0.7790
vn 0.7825 -0.5445 -0.3022
vn 0.7782 -0.5129 0.3625
vn 0.3440 -0.4993 0.7952
vn 0.4752 -0.1830 0.8606
vn 0.5979 -0.1796 -0.7812
vn -0.9723 -0.1532 0.1768
vn 0.8487 -0.1784 -0.4979
vn -0.9869 -0.1558 -0.0422
vn 0.8721 -0.1853 0.4530
vn -0.3044 -0.2076 -0.9296
vn -0.3492 -0.1869 0.9182
vn 0.1973 -0.5575 -0.8064
vn -0.2983 0.5635 0.7704
vn 0.8127 -0.5627 -0.1516
vn -0.7564 0.5700 0.3208
vn 0.7905 -0.5642 0.2382
vn -0.7589 0.5655 -0.3228
vn 0.1841 -0.5423 0.8197
vn -0.3052 0.5491 -0.7780
vn -0.2423 -0.5278 0.8141
vn 0.3387 0.5295 -0.7778
vn -0.8187 -0.5293 0.2225
vn 0.7844 0.5323 -0.3183
vn -0.8342 -0.5281 -0.1586
vn 0.7828 0.5343 0.3190
vn -0.2425 -0.5404 -0.8057
vn 0.3358 0.5418 0.7705
vn 0.4950 -0.5104 -0.7032
vn -0.3675 0.5184 0.7722
vn 0.7202 -0.5087 -0.4717
vn -0.7992 0.5143 0.3109
vn 0.7392 -0.4914 0.4606
vn -0.8050 0.4985 -0.3216
vn 0.5350 -0.4881 0.6895
vn -0.3649 0.5028 -0.7836
vn -0.4258 -0.5359 0.7291
vn 0.2843 0.5337 -0.7964
vn -0.7042 -0.5967 0.3849
vn 0.7314 0.6009 -0.3225
vn -0.6150 -0.6018 -0.5095
vn 0.7126 0.6235 0.3216
vn -0.4547 -0.5574 -0.6946
vn 0.2822 0.5584 0.7801
vn 0.4220 -0.5696 -0.7053
vn 0.6890 -0.6029 -0.4022
vn 0.6244 -0.6305 0.4611
vn 0.3787 -0.6461 0.6627
vn -0.4941 -0.5605 0.6646
vn -0.6920 -0.5186 0.5022
vn -0.6302 -0.5328 -0.5648
vn -0.5011 -0.5585 -0.6611
vt 0.550377 0.547788
vt 0.550378 0.593064
vt 0.552028 0.593064
vt 0.552543 0.545400
vt 0.552634 0.593064
vt 0.553312 0.542652
vt 0.551821 0.593064
vt 0.552540 0.544159
vt 0.550393 0.593064
vt 0.550552 0.544879
vt 0.548774 0.593064
vt 0.548369 0.548163
vt 0.548255 0.593064
vt 0.547742 0.555277
vt 0.548828 0.593064
vt 0.548218 0.551802
vt 0.547977 0.527441
vt 0.546023 0.527036
vt 0.547470 0.527483
vt 0.550477 0.527071
vt 0.550396 0.527197
vt 0.553619 0.527036
vt 0.553951 0.527105
vt 0.553256 0.527384
vt 0.551164 0.711772
vt 0.551651 0.711772
vt 0.549850 0.711772
vt 0.548548 0.711772
vt 0.548592 0.711772
vt 0.549837 0.711772
vt 0.550997 0.711772
vt 0.548131 0.711772
vt 0.550324 0.780236
vt 0.549187 0.780236
vt 0.551897 0.780236
vt 0.551326 0.780236
vt 0.550313 0.780236
vt 0.551472 0.780236
vt 0.549226 0.780236
vt 0.548823 0.780236
vt 0.549114 0.840971
vt 0.549420 0.840971
vt 0.550256 0.840971
vt 0.549391 0.840971
vt 0.551452 0.840971
vt 0.551017 0.840971
vt 0.550247 0.840971
vt 0.551128 0.840971
vt 0.549808 0.890110
vt 0.549600 0.890110
vt 0.551032 0.890110
vt 0.550459 0.890110
vt 0.551115 0.890110
vt 0.551359 0.890110
vt 0.549830 0.890110
vt 0.550452 0.890110
vt 0.550592 0.971825
vt 0.151382 0.577053
vt 0.151859 0.767287
vt 0.156715 0.766467
vt 0.171674 0.573627
vt 0.158727 0.766128
vt 0.180079 0.572208
vt 0.151382 0.577053
vt 0.147003 0.768107
vt 0.131090 0.580478
vt 0.144991 0.768446
vt 0.122684 0.581897
vt 0.147002 0.768106
vt 0.150751 0.574672
vt 0.149776 0.739302
vt 0.153978 0.740979
vt 0.168312 0.581679
vt 0.155719 0.741674
vt 0.175586 0.584582
vt 0.145573 0.737625
vt 0.133190 0.567664
vt 0.143832 0.736930
vt 0.125916 0.564762
vt 0.133190 0.567664
vt 0.150176 0.532772
vt 0.150716 0.684272
vt 0.159544 0.684857
vt 0.170590 0.524551
vt 0.164389 0.669319
vt 0.179046 0.521146
vt 0.159745 0.681483
vt 0.150695 0.678544
vt 0.140797 0.676002
vt 0.129762 0.540992
vt 0.137372 0.684377
vt 0.121307 0.544398
vt 0.141844 0.690898
vt 0.129762 0.540992
vt 0.151321 0.959221
s 0
usemtl AllColors_Material
f 17/1/1 2/2/1 4/3/1 18/4/1
f 18/4/2 4/3/2 6/5/2 19/6/2
f 19/6/3 6/5/3 8/7/3 20/8/3
f 20/8/4 8/7/4 10/9/4 21/10/4
f 21/10/5 10/9/5 12/11/5 22/12/5
f 22/12/6 12/11/6 14/13/6 23/14/6
f 23/14/7 14/13/7 16/15/7 24/16/7
f 24/16/8 16/15/8 2/2/8 17/1/8
f 11/17/9 13/18/9 15/19/9
f 15/19/10 24/16/10 17/1/10 1/20/10
f 13/18/11 23/14/11 24/16/11 15/19/11
f 11/17/12 22/12/12 23/14/12 13/18/12
f 9/21/13 21/10/13 22/12/13 11/17/13
f 7/22/14 20/8/14 21/10/14 9/21/14
f 5/23/15 19/6/15 20/8/15 7/22/15
f 3/24/16 18/4/16 19/6/16 5/23/16
f 1/20/17 17/1/17 18/4/17 3/24/17
f 15/19/18 1/20/18 3/24/18
f 3/24/19 5/23/19 15/19/19
f 5/23/20 7/22/20 9/21/20
f 15/19/21 5/23/21 9/21/21
f 9/21/22 11/17/22 15/19/22
f 6/5/23 4/3/23 26/25/23 27/26/23
f 12/11/24 10/9/24 29/27/24 30/28/24
f 2/2/25 16/15/25 32/29/25 25/30/25
f 4/3/26 2/2/26 25/30/26 26/25/26
f 8/7/27 6/5/27 27/26/27 28/31/27
f 14/13/28 12/11/28 30/28/28 31/32/28
f 10/9/29 8/7/29 28/31/29 29/27/29
f 16/15/30 14/13/30 31/32/30 32/29/30
f 30/28/31 29/27/31 37/33/31 38/34/31
f 28/31/32 27/26/32 35/35/32 36/36/32
f 26/25/33 25/30/33 33/37/33 34/38/33
f 25/30/34 32/29/34 40/39/34 33/37/34
f 31/32/35 30/28/35 38/34/35 39/40/35
f 29/27/36 28/31/36 36/36/36 37/33/36
f 27/26/37 26/25/37 34/38/37 35/35/37
f 32/29/38 31/32/38 39/40/38 40/39/38
f 40/39/39 39/40/39 47/41/39 48/42/39
f 38/34/40 37/33/40 45/43/40 46/44/40
f 36/36/41 35/35/41 43/45/41 44/46/41
f 34/38/42 33/37/42 41/47/42 42/48/42
f 33/37/43 40/39/43 48/42/43 41/47/43
f 39/40/44 38/34/44 46/44/44 47/41/44
f 37/33/45 36/36/45 44/46/45 45/43/45
f 35/35/46 34/38/46 42/48/46 43/45/46
f 47/41/47 46/44/47 54/49/47 55/50/47
f 45/43/48 44/46/48 52/51/48 53/52/48
f 43/45/49 42/48/49 50/53/49 51/54/49
f 48/42/50 47/41/50 55/50/50 56/55/50
f 46/44/51 45/43/51 53/52/51 54/49/51
f 44/46/52 43/45/52 51/54/52 52/51/52
f 42/48/53 41/47/53 49/56/53 50/53/53
f 41/47/54 48/42/54 56/55/54 49/56/54
f 50/53/55 49/56/55 57/57/55
f 49/56/56 56/55/56 57/57/56
f 55/50/57 54/49/57 57/57/57
f 53/52/58 52/51/58 57/57/58
f 51/54/59 50/53/59 57/57/59
f 56/55/60 55/50/60 57/57/60
f 54/49/61 53/52/61 57/57/61
f 52/51/62 51/54/62 57/57/62
f 58/58/63 59/59/63 61/60/63 60/61/63
f 60/61/64 61/60/64 63/62/64 62/63/64
f 62/63/65 63/62/65 65/60/65 64/61/65
f 64/61/66 65/60/66 67/59/66 66/64/66
f 66/64/67 67/59/67 69/65/67 68/66/67
f 68/66/68 69/65/68 71/67/68 70/68/68
f 70/68/69 71/67/69 73/69/69 72/66/69
f 72/66/70 73/69/70 59/59/70 58/58/70
f 74/70/71 75/71/71 77/72/71 76/73/71
f 76/73/72 77/72/72 79/74/72 78/75/72
f 78/75/73 79/74/73 81/72/73 80/73/73
f 80/73/74 81/72/74 83/71/74 82/70/74
f 82/70/75 83/71/75 85/76/75 84/77/75
f 84/77/76 85/76/76 87/78/76 86/79/76
f 86/79/77 87/78/77 89/76/77 88/80/77
f 88/80/78 89/76/78 75/71/78 74/70/78
f 90/81/79 104/82/79 101/83/79 91/84/79
f 91/84/80 101/83/80 99/85/80 92/86/80
f 92/86/81 99/85/81 102/87/81 93/84/81
f 93/84/82 102/87/82 105/88/82 95/81/82
f 95/81/83 105/88/83 103/89/83 96/90/83
f 96/90/84 103/89/84 100/91/84 97/92/84
f 97/92/85 100/91/85 106/93/85 98/94/85
f 98/94/86 106/93/86 104/82/86 90/81/86
f 104/82/87 106/93/87 94/95/87
f 103/89/88 105/88/88 94/95/88
f 99/85/89 101/83/89 94/95/89
f 100/91/90 103/89/90 94/95/90
f 102/87/91 99/85/91 94/95/91
f 106/93/92 100/91/92 94/95/92
f 105/88/93 102/87/93 94/95/93
f 101/83/94 104/82/94 94/95/94
f 107/58/95 109/61/95 110/60/95 108/59/95
f 109/61/96 111/63/96 112/62/96 110/60/96
f 111/63/97 113/61/97 114/60/97 112/62/97
f 113/61/98 115/64/98 116/59/98 114/60/98
f 115/64/99 117/66/99 118/65/99 116/59/99
f 117/66/100 119/68/100 120/67/100 118/65/100
f 119/68/101 121/66/101 122/69/101 120/67/101
f 121/66/102 107/58/102 108/59/102 122/69/102
f 123/70/103 125/73/103 126/72/103 124/71/103
f 125/73/104 127/75/104 128/74/104 126/72/104
f 127/75/105 129/73/105 130/72/105 128/74/105
f 129/73/106 131/70/106 132/71/106 130/72/106
f 131/70/107 133/77/107 134/76/107 132/71/107
f 133/77/108 135/79/108 136/78/108 134/76/108
f 135/79/109 137/80/109 138/76/109 136/78/109
f 137/80/110 123/70/110 124/71/110 138/76/110
f 139/81/111 140/84/111 150/83/111 153/82/111
f 140/84/112 141/86/112 148/85/112 150/83/112
f 141/86/113 142/84/113 151/87/113 148/85/113
f 142/84/114 144/81/114 154/88/114 151/87/114
f 144/81/115 145/90/115 152/89/115 154/88/115
f 145/90/116 146/92/116 149/91/116 152/89/116
f 146/92/117 147/94/117 155/93/117 149/91/117
f 147/94/118 139/81/118 153/82/118 155/93/118
f 153/82/119 143/95/119 155/93/119
f 152/89/120 143/95/120 154/88/120
f 148/85/121 143/95/121 150/83/121
f 149/91/122 143/95/122 152/89/122
f 151/87/123 143/95/123 148/85/123
f 155/93/124 143/95/124 149/91/124
f 154/88/125 143/95/125 151/87/125
f 150/83/126 143/95/126 153/82/126
f 58/58/127 60/61/127 109/61/127 107/58/127
f 61/60/128 59/59/128 108/59/128 110/60/128
f 60/61/129 62/63/129 111/63/129 109/61/129
f 63/62/130 61/60/130 110/60/130 112/62/130
f 62/63/131 64/61/131 113/61/131 111/63/131
f 65/60/132 63/62/132 112/62/132 114/60/132
f 64/61/133 66/64/133 115/64/133 113/61/133
f 67/59/134 65/60/134 114/60/134 116/59/134
f 66/64/135 68/66/135 117/66/135 115/64/135
f 69/65/136 67/59/136 116/59/136 118/65/136
f 68/66/137 70/68/137 119/68/137 117/66/137
f 71/67/138 69/65/138 118/65/138 120/67/138
f 70/68/139 72/66/139 121/66/139 119/68/139
f 73/69/140 71/67/140 120/67/140 122/69/140
f 72/66/141 58/58/141 107/58/141 121/66/141
f 59/59/142 73/69/142 122/69/142 108/59/142
f 74/70/143 76/73/143 125/73/143 123/70/143
f 77/72/144 75/71/144 124/71/144 126/72/144
f 76/73/145 78/75/145 127/75/145 125/73/145
f 79/74/146 77/72/146 126/72/146 128/74/146
f 78/75/147 80/73/147 129/73/147 127/75/147
f 81/72/148 79/74/148 128/74/148 130/72/148
f 80/73/149 82/70/149 131/70/149 129/73/149
f 83/71/150 81/72/150 130/72/150 132/71/150
f 82/70/151 84/77/151 133/77/151 131/70/151
f 85/76/152 83/71/152 132/71/152 134/76/152
f 84/77/153 86/79/153 135/79/153 133/77/153
f 87/78/154 85/76/154 134/76/154 136/78/154
f 86/79/155 88/80/155 137/80/155 135/79/155
f 89/76/156 87/78/156 136/78/156 138/76/156
f 88/80/157 74/70/157 123/70/157 137/80/157
f 75/71/158 89/76/158 138/76/158 124/71/158
f 90/81/159 91/84/159 140/84/159 139/81/159
f 91/84/160 92/86/160 141/86/160 140/84/160
f 92/86/161 93/84/161 142/84/161 141/86/161
f 93/84/162 95/81/162 144/81/162 142/84/162
f 95/81/163 96/90/163 145/90/163 144/81/163
f 96/90/164 97/92/164 146/92/164 145/90/164
f 97/92/165 98/94/165 147/94/165 146/92/165
f 98/94/166 90/81/166 139/81/166 147/94/166
